<?xml version="1.0" encoding="UTF-8" standalone="no"?>
<!-- Created with Inkscape (http://www.inkscape.org/) -->

<svg
   width="210mm"
   height="297mm"
   viewBox="0 0 210 297"
   version="1.1"
   id="svg1"
   xml:space="preserve"
   inkscape:version="1.3 (0e150ed6c4, 2023-07-21)"
   sodipodi:docname="logo.svg"
   xmlns:inkscape="http://www.inkscape.org/namespaces/inkscape"
   xmlns:sodipodi="http://sodipodi.sourceforge.net/DTD/sodipodi-0.dtd"
   xmlns="http://www.w3.org/2000/svg"
   xmlns:svg="http://www.w3.org/2000/svg"><sodipodi:namedview
     id="namedview1"
     pagecolor="#ffffff"
     bordercolor="#000000"
     borderopacity="0.25"
     inkscape:showpageshadow="2"
     inkscape:pageopacity="0.0"
     inkscape:pagecheckerboard="0"
     inkscape:deskcolor="#d1d1d1"
     inkscape:document-units="mm"
     showguides="true"
     inkscape:zoom="0.4894542"
     inkscape:cx="-203.28766"
     inkscape:cy="677.28503"
     inkscape:window-width="1920"
     inkscape:window-height="991"
     inkscape:window-x="-9"
     inkscape:window-y="-9"
     inkscape:window-maximized="1"
     inkscape:current-layer="layer1" /><defs
     id="defs1"><style
       id="style1">.cls-1{fill:#48ef48;}.cls-2{fill:#2dd32d;}.cls-3{fill:none;stroke:#000;stroke-linecap:round;stroke-miterlimit:10;stroke-width:4px;}</style></defs><g
     inkscape:label="Camada 1"
     inkscape:groupmode="layer"
     id="layer1"><g
       id="g1"
       transform="matrix(0.65038553,0,0,0.65038553,78.994053,122.48475)"><path
         class="cls-1"
         d="m 43.6576,50.9593 c 9.5618,-12.7077 21.7519,-26.0025 16.6282,-30.9645 -5.192,-5.288 -23.9384,1.9747 -35.168,12.2588 -11.6989,9.8109 -4.2076,20.73 -2.0516,22.9135 2.4506,2.4192 11.588,8.7229 20.5914,-4.2078 z"
         id="path1" /><path
         class="cls-2"
         d="m 60.2858,19.9948 c -1.8358,-1.87 -5.37,-2.1647 -9.6639,-1.3174 A 6.542,6.542 0 0 1 54.5373,20.7 c 4.6993,5.3658 -8.5406,17.6155 -19.1129,29.4957 -3.6148,4.3766 -7.04,6.2559 -10.0506,6.7572 3.9028,2.4133 11.1336,4.2758 18.2838,-5.9932 9.5618,-12.7081 21.7519,-26.0029 16.6282,-30.9649 z"
         id="path2" /><path
         class="cls-3"
         d="m 43.6576,50.9593 c 9.5618,-12.7077 21.7519,-26.0025 16.6282,-30.9645 -5.192,-5.288 -23.9384,1.9747 -35.168,12.2588 -11.6989,9.8109 -4.2076,20.73 -2.0516,22.9135 2.4506,2.4192 11.588,8.7229 20.5914,-4.2078 z"
         id="path3" /><path
         class="cls-3"
         d="M 49.6668,27.6131 A 143.0573,143.0573 0 0 0 18.5024,61.7781"
         id="path4" /><path
         class="cls-3"
         d="m 38.805,29.6056 q 0.8256,2.94 1.6775,5.9274 3.07,0.9132 6.1478,1.8183"
         id="path5" /><path
         class="cls-3"
         d="m 30.9962,34.6111 q 1.8408,3.2765 3.74,6.6282 3.2978,1.8877 6.5527,3.7149"
         id="path6" /><path
         class="cls-3"
         d="m 25.7252,42.1593 q 1.4295,2.8872 2.9457,5.8677 2.8167,1.4333 5.5644,2.7873"
         id="path7" /></g><ellipse
       style="fill:none;fill-opacity:0;stroke:#000000;stroke-width:2;stroke-dasharray:none;stroke-opacity:1"
       id="path8"
       cx="105"
       cy="148.5"
       rx="23.316603"
       ry="22.934362" /><text
       xml:space="preserve"
       style="font-size:14.1111px;fill:#000000;fill-opacity:1;stroke:#000000;stroke-width:4.03335;stroke-dasharray:none;stroke-opacity:0"
       x="85.387085"
       y="187.25189"
       id="text10"><tspan
         sodipodi:role="line"
         id="tspan10"
         style="font-style:normal;font-variant:normal;font-weight:bold;font-stretch:normal;font-size:14.1111px;font-family:'Segoe UI';-inkscape-font-specification:'Segoe UI Bold';fill:#000000;fill-opacity:1;stroke:#000000;stroke-width:4.03335;stroke-opacity:0"
         x="85.387085"
         y="187.25189">FARM</tspan></text><text
       xml:space="preserve"
       style="font-size:11.2889px;fill:#000000;fill-opacity:1;stroke:#000000;stroke-width:4.03335;stroke-dasharray:none;stroke-opacity:0"
       x="75.984001"
       y="201.4256"
       id="text10-1"><tspan
         sodipodi:role="line"
         id="tspan10-4"
         style="font-style:normal;font-variant:normal;font-weight:600;font-stretch:normal;font-size:11.2889px;font-family:'Segoe UI';-inkscape-font-specification:'Segoe UI Semi-Bold';fill:#000000;fill-opacity:1;stroke:#000000;stroke-width:4.03335;stroke-opacity:0"
         x="75.984001"
         y="201.4256">SOFTWARE</tspan></text></g></svg>
